<svg width="251" height="210" viewBox="0 0 251 210" fill="none" xmlns="http://www.w3.org/2000/svg">
<g clip-path="url(#clip0_1_16)">
<rect width="251" height="210" fill="#0A0C0F"/>
<path d="M31.1826 24.5722C25.522 21.9931 19.452 20.0929 13.1053 19.0046C12.9897 18.9836 12.8743 19.0361 12.8148 19.141C12.0341 20.5198 11.1694 22.3185 10.5638 23.7323C3.73761 22.7175 -3.05358 22.7175 -9.73983 23.7323C-10.3455 22.2871 -11.2416 20.5198 -12.0258 19.141C-12.0853 19.0396 -12.2008 18.9871 -12.3164 19.0046C-18.6595 20.0894 -24.7296 21.9896 -30.3936 24.5722C-30.4426 24.5932 -30.4847 24.6282 -30.5126 24.6737C-42.0262 41.7545 -45.1803 58.4156 -43.633 74.87C-43.626 74.9505 -43.5805 75.0275 -43.5175 75.0764C-35.9211 80.616 -28.5627 83.9791 -21.341 86.2082C-21.2254 86.2432 -21.1029 86.2012 -21.0294 86.1067C-19.3211 83.7901 -17.7983 81.3475 -16.4926 78.7788C-16.4156 78.6284 -16.4891 78.4499 -16.6466 78.3904C-19.062 77.4806 -21.362 76.3712 -23.5744 75.1115C-23.7494 75.01 -23.7634 74.7614 -23.6024 74.6424C-23.1368 74.296 -22.6711 73.9356 -22.2266 73.5716C-22.1462 73.5052 -22.0341 73.4911 -21.9395 73.5331C-7.40496 80.1227 8.33041 80.1227 22.6935 73.5331C22.788 73.4876 22.9001 73.5017 22.984 73.5681C23.4287 73.9321 23.8943 74.296 24.3634 74.6424C24.5243 74.7614 24.5138 75.01 24.3388 75.1115C22.1264 76.3957 19.8265 77.4806 17.4076 78.3869C17.2501 78.4464 17.18 78.6284 17.2571 78.7788C18.5907 81.3439 20.1135 83.7865 21.7903 86.1032C21.8604 86.2012 21.9863 86.2432 22.1019 86.2082C29.3587 83.9791 36.717 80.616 44.3134 75.0764C44.3799 75.0275 44.422 74.954 44.429 74.8735C46.2808 55.8503 41.3273 39.3259 31.298 24.6772C31.2735 24.6282 31.2316 24.5932 31.1826 24.5722ZM-14.3221 64.851C-18.698 64.851 -22.3036 60.8616 -22.3036 55.9624C-22.3036 51.0631 -18.7679 47.0738 -14.3221 47.0738C-9.8414 47.0738 -6.27068 51.0981 -6.34073 55.9624C-6.34073 60.8616 -9.87642 64.851 -14.3221 64.851ZM15.1881 64.851C10.8124 64.851 7.20676 60.8616 7.20676 55.9624C7.20676 51.0631 10.7423 47.0738 15.1881 47.0738C19.669 47.0738 23.2396 51.0981 23.1697 55.9624C23.1697 60.8616 19.669 64.851 15.1881 64.851Z" fill="white" fill-opacity="0.02"/>
<path d="M156.492 24.5722C150.832 21.9931 144.762 20.0929 138.415 19.0046C138.299 18.9836 138.184 19.0361 138.124 19.141C137.344 20.5198 136.479 22.3185 135.873 23.7323C129.047 22.7175 122.256 22.7175 115.57 23.7323C114.964 22.2871 114.068 20.5198 113.284 19.141C113.224 19.0396 113.109 18.9871 112.993 19.0046C106.65 20.0894 100.58 21.9896 94.916 24.5722C94.8669 24.5932 94.8249 24.6282 94.797 24.6737C83.2834 41.7545 80.1293 58.4156 81.6766 74.87C81.6836 74.9505 81.7291 75.0275 81.7921 75.0764C89.3885 80.616 96.7469 83.9791 103.969 86.2082C104.084 86.2432 104.207 86.2012 104.28 86.1067C105.988 83.7901 107.511 81.3475 108.817 78.7788C108.894 78.6284 108.82 78.4499 108.663 78.3904C106.248 77.4806 103.948 76.3712 101.735 75.1115C101.56 75.01 101.546 74.7614 101.707 74.6424C102.173 74.296 102.638 73.9356 103.083 73.5716C103.163 73.5052 103.275 73.4911 103.37 73.5331C117.905 80.1227 133.64 80.1227 148.003 73.5331C148.098 73.4876 148.21 73.5017 148.294 73.5681C148.738 73.9321 149.204 74.296 149.673 74.6424C149.834 74.7614 149.823 75.01 149.648 75.1115C147.436 76.3957 145.136 77.4806 142.717 78.3869C142.56 78.4464 142.49 78.6284 142.567 78.7788C143.9 81.3439 145.423 83.7865 147.1 86.1032C147.17 86.2012 147.296 86.2432 147.411 86.2082C154.668 83.9791 162.027 80.616 169.623 75.0764C169.69 75.0275 169.732 74.954 169.739 74.8735C171.59 55.8503 166.637 39.3259 156.608 24.6772C156.583 24.6282 156.541 24.5932 156.492 24.5722ZM110.987 64.851C106.612 64.851 103.006 60.8616 103.006 55.9624C103.006 51.0631 106.542 47.0738 110.987 47.0738C115.468 47.0738 119.039 51.0981 118.969 55.9624C118.969 60.8616 115.433 64.851 110.987 64.851ZM140.498 64.851C136.122 64.851 132.516 60.8616 132.516 55.9624C132.516 51.0631 136.052 47.0738 140.498 47.0738C144.979 47.0738 148.549 51.0981 148.479 55.9624C148.479 60.8616 144.979 64.851 140.498 64.851Z" fill="white" fill-opacity="0.02"/>
<path d="M100.529 129.198C94.8687 126.619 88.7986 124.719 82.452 123.631C82.3364 123.61 82.221 123.662 82.1614 123.767C81.3808 125.146 80.516 126.944 79.9105 128.358C73.0843 127.343 66.2931 127.343 59.6068 128.358C59.0012 126.913 58.1051 125.146 57.3209 123.767C57.2614 123.666 57.1459 123.613 57.0303 123.631C50.6872 124.715 44.6171 126.616 38.9531 129.198C38.904 129.219 38.862 129.254 38.8341 129.3C27.3205 146.381 24.1664 163.042 25.7137 179.496C25.7207 179.576 25.7662 179.653 25.8292 179.702C33.4256 185.242 40.784 188.605 48.0057 190.834C48.1213 190.869 48.2437 190.827 48.3173 190.733C50.0256 188.416 51.5484 185.973 52.8541 183.405C52.9311 183.254 52.8576 183.076 52.7001 183.016C50.2847 182.107 47.9847 180.997 45.7723 179.737C45.5973 179.636 45.5833 179.387 45.7443 179.268C46.2098 178.922 46.6755 178.562 47.1201 178.198C47.2005 178.131 47.3126 178.117 47.4072 178.159C61.9417 184.749 77.6771 184.749 92.0401 178.159C92.1347 178.114 92.2468 178.128 92.3307 178.194C92.7754 178.558 93.241 178.922 93.71 179.268C93.871 179.387 93.8605 179.636 93.6855 179.737C91.4731 181.022 89.1732 182.107 86.7542 183.013C86.5967 183.072 86.5267 183.254 86.6038 183.405C87.9374 185.97 89.4602 188.413 91.137 190.729C91.2071 190.827 91.333 190.869 91.4486 190.834C98.7054 188.605 106.064 185.242 113.66 179.702C113.727 179.653 113.769 179.58 113.776 179.499C115.627 160.476 110.674 143.952 100.645 129.303C100.62 129.254 100.578 129.219 100.529 129.198ZM55.0246 169.477C50.6487 169.477 47.043 165.488 47.043 160.588C47.043 155.689 50.5787 151.7 55.0246 151.7C59.5053 151.7 63.076 155.724 63.006 160.588C63.006 165.488 59.4703 169.477 55.0246 169.477ZM84.5348 169.477C80.159 169.477 76.5534 165.488 76.5534 160.588C76.5534 155.689 80.089 151.7 84.5348 151.7C89.0157 151.7 92.5863 155.724 92.5163 160.588C92.5163 165.488 89.0157 169.477 84.5348 169.477Z" fill="white" fill-opacity="0.02"/>
<path d="M225.839 129.198C220.179 126.619 214.108 124.719 207.762 123.631C207.646 123.61 207.531 123.662 207.471 123.767C206.691 125.146 205.826 126.944 205.22 128.358C198.394 127.343 191.603 127.343 184.917 128.358C184.311 126.913 183.415 125.146 182.631 123.767C182.571 123.666 182.456 123.613 182.34 123.631C175.997 124.715 169.927 126.616 164.263 129.198C164.214 129.219 164.172 129.254 164.144 129.3C152.63 146.381 149.476 163.042 151.024 179.496C151.031 179.576 151.076 179.653 151.139 179.702C158.735 185.242 166.094 188.605 173.316 190.834C173.431 190.869 173.554 190.827 173.627 190.733C175.335 188.416 176.858 185.973 178.164 183.405C178.241 183.254 178.167 183.076 178.01 183.016C175.594 182.107 173.295 180.997 171.082 179.737C170.907 179.636 170.893 179.387 171.054 179.268C171.52 178.922 171.985 178.562 172.43 178.198C172.51 178.131 172.622 178.117 172.717 178.159C187.252 184.749 202.987 184.749 217.35 178.159C217.445 178.114 217.557 178.128 217.641 178.194C218.085 178.558 218.551 178.922 219.02 179.268C219.181 179.387 219.17 179.636 218.995 179.737C216.783 181.022 214.483 182.107 212.064 183.013C211.907 183.072 211.837 183.254 211.914 183.405C213.247 185.97 214.77 188.413 216.447 190.729C216.517 190.827 216.643 190.869 216.758 190.834C224.015 188.605 231.374 185.242 238.97 179.702C239.036 179.653 239.078 179.58 239.085 179.499C240.937 160.476 235.984 143.952 225.955 129.303C225.93 129.254 225.888 129.219 225.839 129.198ZM180.334 169.477C175.958 169.477 172.353 165.488 172.353 160.588C172.353 155.689 175.889 151.7 180.334 151.7C184.815 151.7 188.386 155.724 188.316 160.588C188.316 165.488 184.78 169.477 180.334 169.477ZM209.845 169.477C205.469 169.477 201.863 165.488 201.863 160.588C201.863 155.689 205.399 151.7 209.845 151.7C214.325 151.7 217.896 155.724 217.826 160.588C217.826 165.488 214.325 169.477 209.845 169.477Z" fill="white" fill-opacity="0.02"/>
<path d="M281.801 24.5722C276.141 21.9931 270.071 20.0929 263.724 19.0046C263.609 18.9836 263.493 19.0361 263.434 19.141C262.653 20.5198 261.788 22.3185 261.183 23.7323C254.357 22.7175 247.565 22.7175 240.879 23.7323C240.273 22.2871 239.377 20.5198 238.593 19.141C238.534 19.0396 238.418 18.9871 238.303 19.0046C231.959 20.0894 225.889 21.9896 220.225 24.5722C220.176 24.5932 220.134 24.6282 220.106 24.6737C208.593 41.7545 205.439 58.4156 206.986 74.87C206.993 74.9505 207.038 75.0275 207.101 75.0764C214.698 80.616 222.056 83.9791 229.278 86.2082C229.394 86.2432 229.516 86.2012 229.59 86.1067C231.298 83.7901 232.821 81.3475 234.126 78.7788C234.203 78.6284 234.13 78.4499 233.972 78.3904C231.557 77.4806 229.257 76.3712 227.045 75.1115C226.87 75.01 226.856 74.7614 227.016 74.6424C227.482 74.296 227.948 73.9356 228.392 73.5716C228.473 73.5052 228.585 73.4911 228.679 73.5331C243.214 80.1227 258.949 80.1227 273.312 73.5331C273.407 73.4876 273.519 73.5017 273.603 73.5681C274.048 73.9321 274.513 74.296 274.982 74.6424C275.143 74.7614 275.133 75.01 274.958 75.1115C272.745 76.3957 270.445 77.4806 268.026 78.3869C267.869 78.4464 267.799 78.6284 267.876 78.7788C269.21 81.3439 270.732 83.7865 272.409 86.1032C272.479 86.2012 272.605 86.2432 272.721 86.2082C279.978 83.9791 287.336 80.616 294.932 75.0764C294.999 75.0275 295.041 74.954 295.048 74.8735C296.9 55.8503 291.946 39.3259 281.917 24.6772C281.892 24.6282 281.851 24.5932 281.801 24.5722ZM236.297 64.851C231.921 64.851 228.315 60.8616 228.315 55.9624C228.315 51.0631 231.851 47.0738 236.297 47.0738C240.778 47.0738 244.348 51.0981 244.278 55.9624C244.278 60.8616 240.742 64.851 236.297 64.851ZM265.807 64.851C261.431 64.851 257.826 60.8616 257.826 55.9624C257.826 51.0631 261.361 47.0738 265.807 47.0738C270.288 47.0738 273.858 51.0981 273.789 55.9624C273.789 60.8616 270.288 64.851 265.807 64.851Z" fill="white" fill-opacity="0.02"/>
</g>
<defs>
<clipPath id="clip0_1_16">
<rect width="251" height="210" fill="white"/>
</clipPath>
</defs>
</svg>
